<?xml version="1.0" standalone="no"?>
<!DOCTYPE svg PUBLIC "-//W3C//DTD SVG 20010904//EN"
 "http://www.w3.org/TR/2001/REC-SVG-20010904/DTD/svg10.dtd">
<svg version="1.0" xmlns="http://www.w3.org/2000/svg"
 width="16.000000pt" height="16.000000pt" viewBox="0 0 16.000000 16.000000"
 preserveAspectRatio="xMidYMid meet">

<g transform="translate(0.000000,16.000000) scale(0.100000,-0.100000)"
fill="#000000" stroke="none">
<path d="M40 135 c0 -19 -5 -25 -21 -25 -18 0 -20 -5 -17 -52 l3 -51 43 -1
c41 -1 42 -1 42 31 0 23 -5 33 -15 33 -8 0 -15 7 -15 15 0 18 12 19 28 3 9 -9
15 -3 26 23 l15 34 1 -42 c0 -23 5 -45 10 -48 6 -4 10 15 10 49 0 44 -3 56
-15 56 -9 0 -20 -12 -26 -27 l-11 -28 -10 28 c-13 36 -48 38 -48 2z m34 -10
c3 -8 1 -15 -4 -15 -6 0 -10 7 -10 15 0 8 2 15 4 15 2 0 6 -7 10 -15z m-33
-37 c1 -7 1 -17 0 -21 -1 -4 6 -10 14 -13 25 -10 18 -34 -10 -34 -22 0 -25 4
-25 40 0 22 5 40 10 40 6 0 11 -6 11 -12z"/>
</g>
</svg>
