<svg width="24" height="24" viewBox="0 0 24 24" fill="none" xmlns="http://www.w3.org/2000/svg">
<path d="M4 14.1355H5.125L5.7 12.4959H8.3L8.9 14.1355H10L7.575 7.72611H6.425L4 14.1355ZM6.025 11.5767L6.975 8.91856H7.025L7.975 11.5767H6.025ZM14 9.83775V8.14844C14.55 7.91657 15.1125 7.74267 15.6875 7.62674C16.2625 7.51081 16.8667 7.45284 17.5 7.45284C17.9333 7.45284 18.3583 7.48596 18.775 7.55221C19.1917 7.61846 19.6 7.70127 20 7.80064V9.39058C19.6 9.24152 19.1958 9.12973 18.7875 9.0552C18.3792 8.98067 17.95 8.94341 17.5 8.94341C16.8667 8.94341 16.2583 9.02208 15.675 9.17941C15.0917 9.33675 14.5333 9.5562 14 9.83775ZM14 15.3032V13.6138C14.55 13.382 15.1125 13.2081 15.6875 13.0921C16.2625 12.9762 16.8667 12.9183 17.5 12.9183C17.9333 12.9183 18.3583 12.9514 18.775 13.0176C19.1917 13.0839 19.6 13.1667 20 13.266V14.856C19.6 14.7069 19.1958 14.5951 18.7875 14.5206C18.3792 14.4461 17.95 14.4088 17.5 14.4088C16.8667 14.4088 16.2583 14.4833 15.675 14.6324C15.0917 14.7815 14.5333 15.005 14 15.3032ZM14 12.5705V10.8811C14.55 10.6493 15.1125 10.4754 15.6875 10.3594C16.2625 10.2435 16.8667 10.1855 17.5 10.1855C17.9333 10.1855 18.3583 10.2187 18.775 10.2849C19.1917 10.3512 19.6 10.434 20 10.5333V12.1233C19.6 11.9742 19.1958 11.8624 18.7875 11.7879C18.3792 11.7134 17.95 11.6761 17.5 11.6761C16.8667 11.6761 16.2583 11.7548 15.675 11.9121C15.0917 12.0695 14.5333 12.2889 14 12.5705ZM6.5 15.8994C7.28333 15.8994 8.04583 15.9863 8.7875 16.1602C9.52917 16.3341 10.2667 16.595 11 16.9428V7.15473C10.3167 6.75724 9.59167 6.45913 8.825 6.26039C8.05833 6.06165 7.28333 5.96227 6.5 5.96227C5.9 5.96227 5.30417 6.02024 4.7125 6.13617C4.12083 6.25211 3.55 6.42601 3 6.65787V16.4956C3.58333 16.2969 4.1625 16.1478 4.7375 16.0484C5.3125 15.9491 5.9 15.8994 6.5 15.8994ZM13 16.9428C13.7333 16.595 14.4708 16.3341 15.2125 16.1602C15.9542 15.9863 16.7167 15.8994 17.5 15.8994C18.1 15.8994 18.6875 15.9491 19.2625 16.0484C19.8375 16.1478 20.4167 16.2969 21 16.4956V6.65787C20.45 6.42601 19.8792 6.25211 19.2875 6.13617C18.6958 6.02024 18.1 5.96227 17.5 5.96227C16.7167 5.96227 15.9417 6.06165 15.175 6.26039C14.4083 6.45913 13.6833 6.75724 13 7.15473V16.9428ZM12 19.8742C11.2 19.2449 10.3333 18.7563 9.4 18.4085C8.46667 18.0607 7.5 17.8868 6.5 17.8868C5.8 17.8868 5.1125 17.9779 4.4375 18.1601C3.7625 18.3423 3.11667 18.599 2.5 18.9302C2.15 19.1124 1.8125 19.1041 1.4875 18.9054C1.1625 18.7066 1 18.4168 1 18.0359V6.06165C1 5.87947 1.04583 5.70557 1.1375 5.53995C1.22917 5.37433 1.36667 5.25012 1.55 5.16731C2.31667 4.76982 3.11667 4.47171 3.95 4.27297C4.78333 4.07422 5.63333 3.97485 6.5 3.97485C7.46667 3.97485 8.4125 4.09907 9.3375 4.3475C10.2625 4.59592 11.15 4.96856 12 5.46542C12.85 4.96856 13.7375 4.59592 14.6625 4.3475C15.5875 4.09907 16.5333 3.97485 17.5 3.97485C18.3667 3.97485 19.2167 4.07422 20.05 4.27297C20.8833 4.47171 21.6833 4.76982 22.45 5.16731C22.6333 5.25012 22.7708 5.37433 22.8625 5.53995C22.9542 5.70557 23 5.87947 23 6.06165V18.0359C23 18.4168 22.8375 18.7066 22.5125 18.9054C22.1875 19.1041 21.85 19.1124 21.5 18.9302C20.8833 18.599 20.2375 18.3423 19.5625 18.1601C18.8875 17.9779 18.2 17.8868 17.5 17.8868C16.5 17.8868 15.5333 18.0607 14.6 18.4085C13.6667 18.7563 12.8 19.2449 12 19.8742Z" fill="url(#paint0_linear_18_77)"/>
<defs>
<linearGradient id="paint0_linear_18_77" x1="12" y1="3.97485" x2="12" y2="19.8742" gradientUnits="userSpaceOnUse">
<stop offset="0.288462" stop-color="#A0F539"/>
<stop offset="1" stop-color="#5D8F21"/>
</linearGradient>
</defs>
</svg>
