<svg width="24" height="24" viewBox="0 0 24 24" fill="none" xmlns="http://www.w3.org/2000/svg">
<path d="M11.9 21.8616L16.45 9.93711H18.55L23.1 21.8616H21L19.925 18.8308H15.075L14 21.8616H11.9ZM4 18.8805L2.6 17.4893L7.65 12.4711C7.06667 11.8914 6.5375 11.2289 6.0625 10.4837C5.5875 9.73837 5.15 8.89372 4.75 7.94969H6.85C7.18333 8.5956 7.51667 9.15871 7.85 9.639C8.18333 10.1193 8.58333 10.5996 9.05 11.0799C9.6 10.5333 10.1708 9.76735 10.7625 8.78192C11.3542 7.79649 11.8 6.85661 12.1 5.96227H1V3.97485H8V1.98743H10V3.97485H17V5.96227H14.1C13.75 7.15472 13.225 8.3803 12.525 9.639C11.825 10.8977 11.1333 11.8583 10.45 12.5208L12.85 14.9554L12.1 16.9925L9.05 13.8871L4 18.8805ZM15.7 17.0918H19.3L17.5 12.0239L15.7 17.0918Z" fill="url(#paint0_linear_17_73)"/>
<defs>
<linearGradient id="paint0_linear_17_73" x1="12.05" y1="1.98743" x2="12.05" y2="21.8616" gradientUnits="userSpaceOnUse">
<stop offset="0.288462" stop-color="#A0F539"/>
<stop offset="1" stop-color="#5D8F21"/>
</linearGradient>
</defs>
</svg>
