<svg width="79" height="74" viewBox="0 0 79 74" fill="none" xmlns="http://www.w3.org/2000/svg">
<path d="M78.1836 54.8018L69.041 54.833L68.79 13.5908L72.1836 7.97559L67.041 7.99316L53.1748 39.3076L46.5459 39.3291L40.2217 25.0098H31.2578L31.5947 45.9287L37.333 41.0107H56V73.0107H45.333V66.1533L37.333 73.0107H9.33301C6.84425 73.0107 4.66639 72.2103 2.7998 70.6104C0.933323 69.0105 0.000142405 67.1438 0 65.0107V25.0098C0.000141987 22.8767 0.933323 21.01 2.7998 19.4102C4.66639 17.8102 6.84425 17.0108 9.33301 17.0107L22.0791 17.0098L21.8496 0.186523L38.1924 0.131836L45.5879 17.0098H54.7607L61.9639 0.0527344L77.8496 0L78.1836 54.8018ZM10.667 25.0098V65.0107H45.333V49.0107H31.6445L31.7598 56.1533L22.6162 56.1836L22.1895 25.0098H10.667ZM49.0938 25.0098L49.667 26.3184L50.8096 26.3145L51.3633 25.0098H49.0938ZM27.6123 8.12402L31.0752 13.7168L31.1279 17.0098H36.6875L32.7559 8.10742L27.6123 8.12402Z" fill="black"/>
</svg>
